# xmcd
#
# Track frame offsets: 
#        150
#        15547
#        38107
#        64522
#        77627
#        97392
#        123727
#        139557
#        159482
#        184962
#        202265
#        228107
#        253075
#        277660
#
# Disc length: 4074 seconds
#
# Revision: 5
# Processed by: cddbd v1.5.2PL0 Copyright (c) Steve Scherf et al.
# Submitted via: ExactAudioCopyFreeDBPlugin 1.0
#
DISCID=bf0fe80e
DTITLE=Cousteau - Cousteau
DYEAR=2000
DGENRE=Blues
TTITLE0=Your Day Will Come
TTITLE1=The Last Good Day Of The Year
TTITLE2=Mesmer
TTITLE3=Jump In The River
TTITLE4=How Will I Know
TTITLE5=(Shades Of) Ruinous Blue
TTITLE6=You My Lunar Queen
TTITLE7=She Don't Hear Your Prayer
TTITLE8=One Good Reason
TTITLE9=Wish You Were Her
TTITLE10=Of This Goodbye
TTITLE11=To Know Her
TTITLE12=Rachael Lately
TTITLE13=Captain Swing
EXTD=©Burned By Max®!!! YEAR: 2000 ID3G: 0
EXTT0=
EXTT1=
EXTT2=
EXTT3=
EXTT4=
EXTT5=
EXTT6=
EXTT7=
EXTT8=
EXTT9=
EXTT10=
EXTT11=
EXTT12=
EXTT13=
PLAYORDER=
